HIERARCHY
ROOT Hips
{
    OFFSET 0.0 0.0 0.0
    CHANNELS 6 Xposition Yposition Zposition Zrotation Xrotation Yrotation
    JOINT LeftHipJoint
    {
        OFFSET 0.1 0.0 0.0
        CHANNELS 3 Zrotation Xrotation Yrotation
        JOINT LeftUpLeg
        {
            OFFSET 123.74130375243608 0.0 0.0
            CHANNELS 3 Zrotation Xrotation Yrotation
            JOINT LeftLeg
            {
                OFFSET 0.0 0.0 -406.0136630512344
                CHANNELS 3 Zrotation Xrotation Yrotation
                JOINT LeftFoot
                {
                    OFFSET 0.0 0.0 -390.24447609165736
                    CHANNELS 3 Zrotation Xrotation Yrotation
                    End Site
                    {
                        OFFSET 0.0 -0.1 0.0
                    }
                }
            }
        }
    }
    JOINT LowerBack
    {
        OFFSET 0.0 0.0 0.1
        CHANNELS 3 Zrotation Xrotation Yrotation
        JOINT Spine
        {
            OFFSET 0.0 0.0 217.31423249236616
            CHANNELS 3 Zrotation Xrotation Yrotation
            JOINT Spine1
            {
                OFFSET 0.0 0.0 251.05368013098993
                CHANNELS 3 Zrotation Xrotation Yrotation
                JOINT LeftShoulder
                {
                    OFFSET 0.1 0.0 0.0
                    CHANNELS 3 Zrotation Xrotation Yrotation
                    JOINT LeftArm
                    {
                        OFFSET 140.14871689720528 0.0 0.0
                        CHANNELS 3 Zrotation Xrotation Yrotation
                        JOINT LeftForeArm
                        {
                            OFFSET 259.35119583515984 0.0 0.0
                            CHANNELS 3 Zrotation Xrotation Yrotation
                            JOINT LeftHand
                            {
                                OFFSET 243.11570114482433 0.0 0.0
                                CHANNELS 3 Zrotation Xrotation Yrotation
                                End Site
                                {
                                    OFFSET 0.1 0.0 0.0
                                }
                            }
                        }
                    }
                }
                JOINT Neck
                {
                    OFFSET 0.0 0.0 0.1
                    CHANNELS 3 Zrotation Xrotation Yrotation
                    JOINT Neck1
                    {
                        OFFSET 0.0 0.0 106.66949390581833
                        CHANNELS 3 Zrotation Xrotation Yrotation
                        End Site
                        {
                            OFFSET 0.0 0.0 116.82064115742672
                        }
                    }
                }
                JOINT RightShoulder
                {
                    OFFSET -0.1 0.0 0.0
                    CHANNELS 3 Zrotation Xrotation Yrotation
                    JOINT RightArm
                    {
                        OFFSET -140.14871689720528 0.0 0.0
                        CHANNELS 3 Zrotation Xrotation Yrotation
                        JOINT RightForeArm
                        {
                            OFFSET -259.35119583515984 0.0 0.0
                            CHANNELS 3 Zrotation Xrotation Yrotation
                            JOINT RightHand
                            {
                                OFFSET -243.11570114482433 0.0 0.0
                                CHANNELS 3 Zrotation Xrotation Yrotation
                                End Site
                                {
                                    OFFSET -0.1 0.0 0.0
                                }
                            }
                        }
                    }
                }
            }
        }
    }
    JOINT RightHipJoint
    {
        OFFSET -0.1 0.0 0.0
        CHANNELS 3 Zrotation Xrotation Yrotation
        JOINT RightUpLeg
        {
            OFFSET -123.74130375243608 0.0 0.0
            CHANNELS 3 Zrotation Xrotation Yrotation
            JOINT RightLeg
            {
                OFFSET 0.0 0.0 -406.0136630512344
                CHANNELS 3 Zrotation Xrotation Yrotation
                JOINT RightFoot
                {
                    OFFSET 0.0 0.0 -390.24447609165736
                    CHANNELS 3 Zrotation Xrotation Yrotation
                    End Site
                    {
                        OFFSET 0.0 -0.1 0.0
                    }
                }
            }
        }
    }
}
MOTION
Frames: 5
Frame Time: 0.03333333333333333
0.0 0.0 800.8785725410312 25.654209785010977 2.3196210836372972 6.216122563275188 0.0 0.0 1.2424041724466862e-16 -0.24262784244996066 -19.825252576256265 -1.8590717970873103 -0.6858546240809703 30.955646858664544 -1.5121382134423975 0.0 0.0 3.975693351829396e-16 0.0 0.0 1.2424041724466862e-16 -0.013282929718924892 -1.1256317422563464 -0.8165941324267016 3.5565803760587045 -4.47835842841097e-16 -1.6128759792122013e-15 0.0 0.0 -2.857529596627378e-16 -27.65293525732487 13.76621369158158 75.4422943486645 -30.43600816156485 -9.007921659686872e-15 8.880032404791762e-15 0.0 0.0 2.5842006786891076e-15 0.0 0.0 -2.857529596627378e-16 -10.996954726924297 -3.682475271290687 -4.947163840164031 0.0 0.0 -2.857529596627378e-16 -4.357452566590935 -33.262439252741906 -57.283728575878655 122.58692760983546 7.505599897210212e-15 -1.0394700645613359e-14 0.0 0.0 0.0 0.0 0.0 1.2424041724466862e-16 -0.14983965947057612 -12.438707649448682 -5.98714074884136 -2.1573784168982533 22.116641493193782 0.03605027415820215 0.0 0.0 -3.975693351829396e-16
0.0 0.0 800.8785725410312 25.609330991704073 2.1180534121634604 6.144229572694327 0.0 0.0 3.7272125173400585e-16 -0.2209411372527357 -19.587548999256178 -1.7892317172627834 -0.6813696783063276 31.087512718986947 -1.5063879648822744 0.0 0.0 0.0 0.0 0.0 3.7272125173400585e-16 -0.013431420902229449 -1.23342445788962 -0.8637170483980073 3.6175745266311665 -3.960746012711848e-17 -1.2542029724818246e-15 0.0 0.0 -3.1060104311167156e-17 -28.399927898258383 14.189238752879191 75.62950108899449 -30.242610078121597 2.137028257221439e-15 4.2839245777813086e-15 0.0 0.0 -2.782985346280577e-15 0.0 0.0 -3.1060104311167156e-17 -10.921391572329547 -3.4208765004479464 -4.86941036995057 0.0 0.0 -3.1060104311167156e-17 -3.998463982637532 -33.49834098514536 -56.62729334765034 123.26847488713625 -2.234795807494423e-16 7.10842438842009e-15 0.0 0.0 0.0 0.0 0.0 3.7272125173400585e-16 -0.13549015301121958 -12.19468954427343 -5.889501398045299 -2.147051869686474 22.18714118762853 0.09298403528674025 0.0 0.0 -3.975693351829396e-16
0.0 0.0 800.8785725410312 25.687503930183084 2.037671792962038 6.113063221308205 0.0 0.0 3.4787316828507215e-16 -0.192903031280567 -19.543712239483085 -1.778139371755312 -0.7288339211018986 31.247531692523147 -1.4661492670903367 0.0 0.0 3.975693351829397e-16 0.0 0.0 3.4787316828507215e-16 -0.012217501821140358 -1.2805705989689806 -0.8300313490015497 3.6069096310740796 4.496469579267498e-17 1.428057080453239e-15 -3.1805546814635168e-15 9.310583597449553e-33 -3.3544912656060527e-16 -28.742372343307313 14.37191676182206 75.58559015298417 -30.19560089308626 6.609524718962726e-15 -1.8394252620122247e-14 1.5902773407317588e-15 -1.5902773407317588e-15 -3.975693351829397e-16 -3.1805546814635168e-15 9.310583597449553e-33 -3.3544912656060527e-16 -10.980677131637115 -3.3467771420387935 -4.98923134909136 -3.1805546814635168e-15 9.310583597449553e-33 -3.3544912656060527e-16 -3.823993417771573 -33.78994424248918 -56.193288557987664 123.81419723206325 -5.801301171517019e-15 4.113945202145105e-15 0.0 0.0 0.0 0.0 0.0 3.4787316828507215e-16 -0.11679209062515133 -11.98850406477067 -5.8947134419764895 -2.1995876717094207 22.349150734879 0.20690441548268645 0.0 0.0 -3.975693351829396e-16
0.0 0.0 800.8785725410312 25.767961682112976 1.882668331289643 6.098762660471273 0.0 0.0 2.3605679276487037e-16 -0.1964376387169345 -19.38326920769993 -1.8401404928333605 -0.7608483144985395 31.366268685574056 -1.3487741947904004 -3.1805546814635168e-15 2.2069531490250793e-32 -7.951386703658792e-16 0.0 0.0 2.3605679276487037e-16 -0.013372786711877704 -1.364760678903767 -0.7733926417455625 3.5587886053110243 -1.871153336965242e-16 3.7871404444416067e-16 0.0 0.0 2.4848083448933722e-17 -28.97129399446268 14.690399055349573 75.61649658244235 -30.069694818083597 -2.4013202865147594e-15 -3.3207954033769387e-15 0.0 0.0 -1.3914926731402884e-15 0.0 0.0 2.4848083448933722e-17 -11.086951915662489 -3.138599512413597 -5.086716587119202 0.0 0.0 2.4848083448933722e-17 -3.7232644337206735 -34.04633110799237 -55.78373057063837 124.32197235067925 2.812447455070356e-15 1.4852836073449994e-15 0.0 0.0 0.0 0.0 0.0 2.3605679276487037e-16 -0.11767166074317577 -11.773911912764417 -5.918607892819259 -2.2150127170734257 22.454862748433595 0.19274645413675137 0.0 0.0 3.975693351829396e-16
0.0 0.0 800.8785725410312 25.861306447485457 1.7249329039353287 5.9885138435484215 0.0 0.0 -2.2363275104040355e-16 -0.16384746452896418 -19.19471128059792 -1.7402515026967973 -0.7596342406237895 31.46300651827462 -1.296458672374989 0.0 0.0 7.951386703658792e-16 0.0 0.0 -2.2363275104040355e-16 -0.01125246267337448 -1.360074391055256 -0.6841635073853817 3.521187296373778 -1.5288588890562323e-16 1.4962885259700463e-15 -3.1805546814635168e-15 -1.0345092886055059e-32 3.7272125173400585e-16 -29.359344703970105 15.02458433017083 75.61624602715291 -30.125545963306358 2.5454697965335203e-15 -1.557770290745157e-14 0.0 0.0 -1.7890620083232284e-15 -3.1805546814635168e-15 -1.0345092886055059e-32 3.7272125173400585e-16 -11.19214043132574 -3.1412184345797245 -5.288527309737054 -3.1805546814635168e-15 -1.0345092886055059e-32 3.7272125173400585e-16 -3.458922571426619 -34.662929549646435 -55.21177796693526 124.64053266646633 -2.816565615940047e-15 -1.477459377744024e-15 0.0 0.0 0.0 0.0 0.0 -2.2363275104040355e-16 -0.09707260922445046 -11.485750796149528 -5.83763511692635 -2.2201172162528757 22.467988117596807 0.22130433117920817 0.0 -1.5902773407317584e-15 0.0
